<svg width="48" height="48" version="1.1" viewBox="0 0 12.7 12.7" xmlns="http://www.w3.org/2000/svg">
 <!-- DIN 188 T-head bolt with double-nib (round-core) neck -->
 <g fill="#ffb300">
  <path d="m2.5 3.35v-1.25l0.95-0.8h5.8l0.95 0.8v1.25z"/>
  <rect x="5.0" y="3.35" width="2.7" height="0.85" rx="0.2"/>
  <rect x="5.6" y="4.2" width="1.5" height="0.95" rx="0.45"/>
  <rect x="5.75" y="5.1" width="1.2" height="7.0" rx="0.12"/>
 </g>
 <g fill="none" stroke="#000000" stroke-linecap="round" stroke-linejoin="round" stroke-width=".28">
  <path d="m2.5 3.35v-1.25l0.95-0.8h5.8l0.95 0.8v1.25z"/>
  <rect x="5.0" y="3.35" width="2.7" height="0.85" rx="0.2"/>
  <rect x="5.6" y="4.2" width="1.5" height="0.95" rx="0.45"/>
  <rect x="5.75" y="5.1" width="1.2" height="7.0" rx="0.12"/>
  <line x1="5.75" y1="6.2" x2="6.95" y2="6.2"/>
  <line x1="5.75" y1="7.0" x2="6.95" y2="7.0"/>
  <line x1="5.75" y1="7.8" x2="6.95" y2="7.8"/>
  <line x1="5.75" y1="8.6" x2="6.95" y2="8.6"/>
  <line x1="5.75" y1="9.4" x2="6.95" y2="9.4"/>
  <line x1="5.75" y1="10.2" x2="6.95" y2="10.2"/>
  <line x1="5.75" y1="11.0" x2="6.95" y2="11.0"/>
 </g>
</svg>
